{
	"asset":{
		"generator":"Khronos glTF Blender I/O v4.0.44",
		"version":"2.0"
	},
	"extensionsUsed":[
		"KHR_materials_specular",
		"KHR_materials_ior"
	],
	"scene":0,
	"scenes":[
		{
			"name":"Scene",
			"nodes":[
				0
			]
		}
	],
	"nodes":[
		{
			"mesh":0,
			"name":"Mesh[LHD_FXX_0578_6272_PTS_C_LAMB93_IGN69.copc.laz] (le_4ece940",
			"rotation":[
				0.7071068286895752,
				0,
				0,
				0.7071068286895752
			],
			"scale":[
				0.009999999776482582,
				0.009999999776482582,
				0.009999999776482582
			]
		}
	],
	"materials":[
		{
			"doubleSided":true,
			"extensions":{
				"KHR_materials_specular":{
					"specularColorFactor":[
						2.0,
						2.0,
						2.0
					]
				},
				"KHR_materials_ior":{
					"ior":1.4500000476837158
				}
			},
			"name":"ColorMaterial.001",
			"pbrMetallicRoughness":{}
		}
	],
	"meshes":[
		{
			"name":"Mesh[LHD_FXX_0578_6272_PTS_C_LAMB93_IGN69.copc.laz] (le_4ece940",
			"primitives":[
				{
					"attributes":{
						"COLOR_0":0,
						"POSITION":1,
						"NORMAL":2
					},
					"indices":3,
					"material":0
				}
			]
		}
	],
	"accessors":[
		{
			"bufferView":0,
			"componentType":5123,
			"count":875659,
			"normalized":true,
			"type":"VEC4"
		},
		{
			"bufferView":1,
			"componentType":5126,
			"count":875659,
			"max":[
				357.12890625,
				203.00790405273438,
				-689.0625
			],
			"min":[
				-32.812496185302734,
				142.73312377929688,
				-1015.7747802734375
			],
			"type":"VEC3"
		},
		{
			"bufferView":2,
			"componentType":5126,
			"count":875659,
			"type":"VEC3"
		},
		{
			"bufferView":3,
			"componentType":5125,
			"count":5243946,
			"type":"SCALAR"
		}
	],
	"bufferViews":[
		{
			"buffer":0,
			"byteLength":7005272,
			"byteOffset":0,
			"target":34962
		},
		{
			"buffer":0,
			"byteLength":10507908,
			"byteOffset":7005272,
			"target":34962
		},
		{
			"buffer":0,
			"byteLength":10507908,
			"byteOffset":17513180,
			"target":34962
		},
		{
			"buffer":0,
			"byteLength":20975784,
			"byteOffset":28021088,
			"target":34963
		}
	],
	"buffers":[
		{
			"byteLength":48996872,
			"uri":"3dmodel_cropped.bin"
		}
	]
}
